<svg xmlns="http://www.w3.org/2000/svg" width="180" height="34" viewBox="0 0 180 34" fill="none"><g clip-path="url(#0hqx22dlwa)" fill="#fff"><path d="M10.463 17.49a8.12 8.12 0 0 0-1.693-1.025 44.98 44.98 0 0 0-1.877-.805c-.492-.205-.968-.405-1.426-.599a6.57 6.57 0 0 1-1.223-.667 3.514 3.514 0 0 1-.855-.822c-.212-.296-.318-.65-.318-1.06 0-.389.1-.725.302-1.01.201-.285.458-.525.771-.719a3.81 3.81 0 0 1 1.09-.444 5.19 5.19 0 0 1 1.257-.155c.738.07 1.375.166 1.912.29a7.673 7.673 0 0 1 1.408.462c.402.183.754.376 1.056.581.302.206.587.41.855.615 0-.342.005-.678.017-1.008a6.653 6.653 0 0 0-.084-1.177c-.448-.27-.862-.501-1.243-.694a6.293 6.293 0 0 0-1.209-.456 8.28 8.28 0 0 0-1.377-.237 18.648 18.648 0 0 0-1.679-.068c-.806 0-1.58.103-2.318.308a6.374 6.374 0 0 0-1.964.905 4.614 4.614 0 0 0-1.361 1.451A3.694 3.694 0 0 0 0 13.07c0 .843.157 1.555.471 2.136a4.68 4.68 0 0 0 1.227 1.468 7.631 7.631 0 0 0 1.7 1.008c.628.274 1.268.524 1.918.752.494.181.965.364 1.414.546a6.31 6.31 0 0 1 1.194.633c.347.238.628.512.841.82.214.306.32.666.32 1.075 0 .455-.1.853-.303 1.195a2.687 2.687 0 0 1-.841.872c-.36.24-.768.421-1.228.547-.46.125-.948.187-1.463.187-1.078.047-2.015-.021-2.81-.205-.797-.183-1.61-.57-2.44-1.162l.302 2.332c.918.276 1.82.47 2.703.586.884.114 1.752.183 2.603.206.761 0 1.533-.097 2.317-.29a6.782 6.782 0 0 0 2.115-.908 4.897 4.897 0 0 0 1.529-1.592c.391-.65.587-1.42.587-2.31 0-.799-.157-1.477-.47-2.036a4.835 4.835 0 0 0-1.223-1.438zM42.44 10.939c-.665-.777-1.529-1.377-2.59-1.8-1.06-.424-2.347-.636-3.858-.636-1.423 0-2.67.223-3.741.668a7.005 7.005 0 0 0-2.692 1.943c-.655-.803-1.512-1.417-2.574-1.843-1.06-.424-2.358-.637-3.892-.637-2.732 0-4.825.806-6.28 2.42-1.457 1.613-2.184 3.816-2.184 6.606v8.076h3.868V16.6c0-1.142.113-2.103.34-2.88.228-.777.551-1.395.971-1.852a3.384 3.384 0 0 1 1.515-.962 5.896 5.896 0 0 1 1.942-.24c.703-.022 1.32.063 1.855.258.534.194.982.52 1.345.978.362.457.64 1.063.834 1.818.193.754.29 1.691.29 2.812v9.203h3.869v-7.69c0-.595-.011-.983-.032-1.167a3.666 3.666 0 0 1-.033-.41c0-1.143.113-2.104.341-2.88.226-.777.55-1.396.97-1.853a3.373 3.373 0 0 1 1.515-.959 5.9 5.9 0 0 1 1.942-.24c.703-.023 1.327.063 1.872.256.545.195.999.52 1.362.977.362.457.636 1.07.817 1.835.181.766.273 1.72.273 2.863v9.268h3.869v-8.21c0-1.395-.153-2.647-.458-3.756-.304-1.109-.79-2.053-1.456-2.831zM62.613 10.874c-.713-.76-1.627-1.346-2.742-1.756-1.116-.41-2.466-.615-4.052-.615-1.517 0-2.805.205-3.862.616-1.058.41-1.932.996-2.621 1.759-.69.762-1.207 1.683-1.552 2.762-.345 1.08-.541 2.3-.586 3.66.045 1.36.24 2.58.586 3.659.345 1.079.863 1.999 1.554 2.761.69.762 1.565 1.343 2.623 1.743 1.058.399 2.348.598 3.867.598.507 0 .984-.057 1.433-.172a3.896 3.896 0 0 0 1.26-.577c.39-.27.776-.64 1.156-1.109.38-.469.766-1.067 1.157-1.795l-.066 3.518v.106h4.018v-8.747c-.046-1.359-.242-2.576-.587-3.653s-.873-1.997-1.586-2.758zm-1.78 5.862c0 2.346-.444 4.151-1.331 5.418-.888 1.266-2.058 1.876-3.51 1.829a5.94 5.94 0 0 1-1.972-.246 3.43 3.43 0 0 1-1.539-.986c-.426-.469-.754-1.1-.985-1.9-.23-.796-.346-1.78-.346-2.954v-1.231c0-1.173.116-2.157.346-2.955.23-.797.56-1.43.985-1.9.426-.469.94-.796 1.539-.985a5.927 5.927 0 0 1 1.972-.245 5.641 5.641 0 0 1 1.97.263 3.58 3.58 0 0 1 1.54 1.003c.426.47.755 1.097.986 1.882.23.785.346 1.764.346 2.937v.07zM87.181.03h-3.713v8.467h-3.932v.001c-.246-.021-.6-.008-.867-.008h-.74c-3.204 0-5.85.94-7.533 2.543-1.684 1.604-2.525 3.793-2.525 6.569v8.152h3.84V16.23c0-1.139.174-2.089.522-2.852.347-.762 1.047-1.44 1.607-1.897.56-.456 1.21-.641 1.904-.835a6.906 6.906 0 0 1 2.084-.256c.269 0 .55.008.84.022.29.014.784.067 1.184.104.31.028 1.096.028 1.096.028l2.52-.027v15.238h3.713V10.515h3.899V8.497h-3.899V.03zM107.315 11.195c-.69-.81-1.564-1.46-2.62-1.953-1.058-.492-2.346-.74-3.862-.74-1.588 0-2.944.248-4.07.74-1.127.492-2.047 1.143-2.76 1.953a7.897 7.897 0 0 0-1.586 2.797 11.313 11.313 0 0 0-.551 3.307c.045 1.173.24 2.287.585 3.343a7.894 7.894 0 0 0 1.587 2.797c.713.81 1.627 1.449 2.742 1.918 1.115.469 2.465.703 4.053.703 1.516 0 2.81-.234 3.879-.703 1.069-.47 1.949-1.096 2.639-1.883.689-.785 1.2-1.712 1.534-2.779a13.03 13.03 0 0 0 .569-3.396 12.16 12.16 0 0 0-.586-3.307 8.208 8.208 0 0 0-1.553-2.797zm-1.813 6.702c0 1.173-.116 2.159-.347 2.955-.23.798-.559 1.43-.985 1.9a3.44 3.44 0 0 1-1.54.985 5.903 5.903 0 0 1-1.971.246 5.619 5.619 0 0 1-1.97-.264c-.601-.199-1.114-.533-1.54-1.002-.427-.47-.755-1.097-.985-1.882-.231-.785-.347-1.765-.347-2.938v-1.231c0-1.173.116-2.152.347-2.938.23-.784.558-1.412.985-1.88.426-.47.939-.804 1.54-1.004a5.636 5.636 0 0 1 1.97-.264 5.931 5.931 0 0 1 1.971.246 3.44 3.44 0 0 1 1.54.986c.426.469.755 1.102.985 1.9.231.797.347 1.781.347 2.954v1.231zM127.304 10.88c-.692-.763-1.568-1.35-2.628-1.76-1.062-.412-2.352-.617-3.874-.617-1.59 0-2.944.205-4.064.616-1.118.41-2.029.998-2.732 1.76-.703.764-1.227 1.686-1.573 2.765-.346 1.08-.542 2.3-.588 3.66v15.88h3.956l.035-8.096c.67.33 1.402.577 2.199.74.797.166 1.714.247 2.755.247 1.523 0 2.815-.2 3.878-.598 1.063-.4 1.94-.98 2.632-1.744.693-.763 1.212-1.684 1.559-2.763.346-1.08.544-2.3.59-3.663-.046-1.361-.242-2.582-.589-3.663-.347-1.08-.864-2.001-1.556-2.764zm-1.812 7.025c0 1.174-.116 2.16-.349 2.958-.233.798-.564 1.431-.993 1.9-.43.47-.947.8-1.551.987a6.015 6.015 0 0 1-1.986.246 5.72 5.72 0 0 1-1.987-.264 3.585 3.585 0 0 1-1.549-1.003c-.431-.47-.761-1.098-.994-1.883-.233-.786-.348-1.767-.348-2.941v-1.232c0-1.174.115-2.154.348-2.94.233-.786.563-1.413.994-1.883.429-.47.946-.804 1.549-1.004a5.719 5.719 0 0 1 1.987-.264 6.005 6.005 0 0 1 1.986.246 3.47 3.47 0 0 1 1.551.986c.429.47.76 1.104.993 1.902.233.798.349 1.783.349 2.957v1.232zM136.982 0h-3.717v8.476h-3.939v2.021h3.939v15.257h3.717V10.497h3.903v-2.02h-3.903V0zM146.865 8.477h-3.846v17.269h3.846V8.476zM144.861.065c-.693 0-1.281.253-1.762.756-.48.503-.72 1.11-.72 1.82s.239 1.317.72 1.82a2.346 2.346 0 0 0 1.762.755c.29 0 .586-.068.89-.206.301-.136.574-.326.821-.566.246-.24.442-.515.587-.824.145-.31.219-.635.219-.98a2.51 2.51 0 0 0-.739-1.819 2.398 2.398 0 0 0-1.778-.756zM160.239 23.93c-1.458-.152-2.706-.522-3.742-1.115-1.039-.59-1.858-1.309-2.462-2.155-.604-.847-.951-1.663-1.042-2.453-.16-1.297-.12-2.399.119-3.303.239-.904.61-1.64 1.111-2.208a5.097 5.097 0 0 1 1.761-1.304 7.39 7.39 0 0 1 2.102-.592c.66 0 1.219.058 1.675.174.456.116.855.302 1.197.557.341.254.648.58.922.974.272.393.57.858.889 1.39.639-.556 1.122-.944 1.454-1.165.329-.22.568-.359.716-.417.149-.058.218-.08.205-.07-.012.012-.04-.028-.084-.121-.252-.533-.707-1.113-1.368-1.74-.661-.624-1.63-1.146-2.906-1.564-1.641-.393-3.156-.44-4.546-.138-1.39.3-2.598.851-3.623 1.651-1.026.8-1.83 1.815-2.411 3.043-.582 1.229-.872 2.585-.872 4.069 0 1.252.205 2.411.615 3.477a7.937 7.937 0 0 0 1.744 2.747 8.015 8.015 0 0 0 2.667 1.792c1.025.428 2.154.631 3.385.608 1.07-.024 1.976-.087 2.717-.19a13.428 13.428 0 0 0 1.931-.4 11.503 11.503 0 0 0 1.47-.54c.432-.197.889-.399 1.367-.608l-.068-1.114c-1.823.627-3.464.865-4.923.714zM179.531 18.942a4.83 4.83 0 0 0-1.222-1.434 8.103 8.103 0 0 0-1.689-1.025 44.46 44.46 0 0 0-1.874-.803c-.491-.205-.966-.403-1.423-.598a6.593 6.593 0 0 1-1.221-.665 3.508 3.508 0 0 1-.854-.82 1.777 1.777 0 0 1-.317-1.06c0-.387.1-.723.302-1.007.2-.284.457-.524.769-.718.312-.193.674-.34 1.088-.443.412-.103.83-.155 1.255-.155.736.07 1.372.166 1.908.29a7.633 7.633 0 0 1 1.406.46c.402.183.752.376 1.054.581.301.205.586.409.854.613 0-.341.005-.676.017-1.006a6.59 6.59 0 0 0-.085-1.174c-.446-.27-.859-.5-1.24-.693a6.233 6.233 0 0 0-1.207-.455 8.23 8.23 0 0 0-1.375-.237 18.7 18.7 0 0 0-1.675-.068c-.805 0-1.576.103-2.313.308a6.362 6.362 0 0 0-1.961.903 4.603 4.603 0 0 0-1.358 1.449 3.68 3.68 0 0 0-.503 1.909c0 .841.156 1.552.47 2.132.313.58.721 1.068 1.224 1.466a7.637 7.637 0 0 0 1.697 1.005c.627.273 1.266.523 1.915.75.493.181.963.364 1.411.546a6.24 6.24 0 0 1 1.191.631c.347.238.627.511.84.818.213.306.32.665.32 1.074 0 .455-.101.851-.303 1.193-.201.34-.481.631-.839.869a4.14 4.14 0 0 1-1.226.546 5.525 5.525 0 0 1-1.461.187c-1.075.047-2.01-.021-2.805-.204-.795-.183-1.606-.57-2.434-1.16l.302 2.327c.915.276 1.815.47 2.697.586a25.91 25.91 0 0 0 2.599.205c.758 0 1.529-.097 2.311-.29a6.748 6.748 0 0 0 2.111-.906 4.88 4.88 0 0 0 1.526-1.588c.39-.649.587-1.418.587-2.306 0-.797-.157-1.474-.469-2.033z"></path></g><defs><clipPath id="0hqx22dlwa"><path fill="#fff" d="M0 0h180v33.184H0z"></path></clipPath></defs></svg>